<?xml version="1.0" encoding="UTF-8" standalone="no"?>
<svg
   width="841.89"
   height="595.276"
   viewBox="0 0 841.89 595.276"
   version="1.1"
   id="svg20"
   sodipodi:docname="mountains.svg"
   inkscape:version="1.4.1 (93de688d07, 2025-03-30)"
   xmlns:inkscape="http://www.inkscape.org/namespaces/inkscape"
   xmlns:sodipodi="http://sodipodi.sourceforge.net/DTD/sodipodi-0.dtd"
   xmlns="http://www.w3.org/2000/svg"
   xmlns:svg="http://www.w3.org/2000/svg">
  <defs
     id="defs20" />
  <sodipodi:namedview
     id="namedview20"
     pagecolor="#ffffff"
     bordercolor="#666666"
     borderopacity="1.0"
     inkscape:showpageshadow="2"
     inkscape:pageopacity="0.0"
     inkscape:pagecheckerboard="0"
     inkscape:deskcolor="#d1d1d1"
     inkscape:zoom="1.9705145"
     inkscape:cx="420.95605"
     inkscape:cy="358.5358"
     inkscape:window-width="1537"
     inkscape:window-height="1270"
     inkscape:window-x="0"
     inkscape:window-y="0"
     inkscape:window-maximized="0"
     inkscape:current-layer="svg20" />
  <path
     fill-rule="nonzero"
     fill="rgb(56.192017%, 56.004333%, 55.908203%)"
     fill-opacity="1"
     d="M -0.238281 33.585938 C 3.246094 34.144531 1.574219 39.027344 2.261719 40.207031 C 2.519531 40.644531 9.824219 44.464844 11.117188 45.261719 C 25.761719 54.289062 42.039062 57.847656 58.332031 63.085938 C 83.277344 71.105469 100.140625 89.394531 112.945312 111.648438 C 121.628906 126.734375 125.609375 144.355469 134.730469 159.445312 C 140.828125 169.527344 150.363281 180.605469 159.5 188.082031 C 178.558594 203.6875 194.824219 207.28125 216.96875 215.910156 C 217.601562 216.15625 218.683594 215.886719 218.644531 217.109375 C 218.671875 218.53125 209.488281 215.800781 208.671875 215.566406 C 199.480469 212.894531 186.523438 207.988281 178.28125 203.71875 C 169.625 199.234375 156.617188 189.640625 149.222656 183.101562 C 124.066406 160.863281 120.332031 130.671875 101.925781 104.433594 C 85.222656 80.636719 67.046875 71.097656 39.960938 65.628906 C 36.597656 64.949219 31.277344 62.539062 27.828125 61.375 C 24.484375 60.246094 20.015625 59.640625 16.695312 58.164062 C 13.164062 56.59375 9.664062 51.738281 5.511719 51.589844 C 5.46875 49.289062 4.855469 51.085938 4.058594 50.628906 C 3.601562 50.371094 1.335938 47.054688 -0.238281 47.019531 Z M -0.238281 33.585938 "
     id="path1" />
  <path
     fill-rule="nonzero"
     fill="rgb(56.532288%, 56.27594%, 56.150818%)"
     fill-opacity="1"
     d="M 840.71875 165.535156 C 839.84375 166.292969 839.414062 165.765625 839.277344 164.820312 C 839.078125 163.449219 839.441406 159.558594 838.847656 158.574219 C 834.351562 154.476562 829.710938 150.265625 824.859375 146.601562 C 823.710938 145.734375 822.074219 145.402344 820.554688 144.1875 C 817.65625 141.878906 817.25 139.117188 815.761719 137.464844 C 815.171875 136.8125 806.246094 133.050781 804.398438 132.03125 C 795.035156 126.867188 783.148438 119.785156 774.582031 113.714844 C 766.699219 108.132812 757.835938 100.738281 750.25 94.511719 C 748.585938 93.144531 746.886719 90.308594 745.148438 89.539062 C 743.882812 88.980469 740.011719 88.324219 738.671875 88.335938 C 734.089844 88.382812 730.050781 89.027344 724.929688 88.878906 C 701.503906 88.210938 692.050781 81.84375 677.507812 64.546875 C 671.527344 57.433594 664.460938 49.644531 659.082031 42.183594 C 653.890625 34.976562 651.628906 27.035156 642.464844 23.285156 C 638.167969 21.527344 622.652344 20.074219 617.761719 20.109375 C 615.488281 20.125 611.800781 21.542969 609.960938 21.5 C 608.21875 21.460938 608.699219 20.148438 610.40625 19.519531 C 617.703125 16.824219 631.492188 17.066406 639 19.074219 C 654.574219 23.242188 657.667969 33.535156 666.769531 45.050781 C 686.0625 69.472656 697.539062 86.90625 732.476562 84.441406 C 739.050781 83.980469 741.800781 81.648438 748.414062 85.792969 C 750.695312 87.222656 751.519531 89.308594 753.113281 90.691406 C 754.691406 92.0625 758.160156 93.78125 759.769531 95.449219 C 760.3125 96.007812 760.003906 96.839844 760.082031 96.925781 C 760.253906 97.113281 761.429688 96.335938 761.515625 96.433594 C 761.597656 96.527344 761.363281 97.585938 761.992188 98.121094 C 762.449219 98.511719 763.628906 98.546875 764.382812 99.097656 C 766.445312 100.59375 768.347656 103.003906 770.398438 104.601562 C 784.433594 115.539062 800.1875 123.75 816.085938 131.863281 C 817.449219 132.558594 820.3125 134.015625 820.816406 135.289062 C 823.429688 141.878906 829.308594 145.332031 834.484375 149.9375 C 836.777344 151.972656 838.191406 154.667969 840.71875 156.417969 Z M 840.71875 165.535156 "
     id="path2" />
  <path
     fill-rule="nonzero"
     fill="rgb(56.532288%, 56.27594%, 56.150818%)"
     fill-opacity="1"
     d="M 840.71875 371.855469 L 840.71875 374.734375 C 836.65625 376.597656 833.929688 380.636719 830.644531 383.617188 C 828.433594 385.628906 825.753906 388.324219 823.6875 390.097656 C 822.464844 391.152344 819.714844 392.089844 818.671875 393.238281 C 814.613281 397.699219 812.671875 399.921875 807.546875 403.714844 C 798.160156 410.660156 787.359375 416.480469 776.726562 421.363281 C 745.898438 435.523438 711.992188 446.921875 681.996094 462.460938 C 664.644531 471.445312 663.828125 487.820312 655.292969 502.007812 C 654.761719 502.890625 655.054688 505.785156 653.03125 502.625 C 657.523438 493.148438 660.511719 482.683594 665.8125 473.632812 C 669.390625 467.523438 674.570312 462.261719 680.925781 458.988281 C 695.566406 451.441406 711.214844 445.359375 726.328125 438.640625 C 755.070312 425.863281 785.695312 415.117188 810.703125 395.851562 C 813.242188 393.898438 813.839844 392.140625 815.507812 390.554688 C 816.816406 389.308594 819.769531 388.410156 821.28125 387.210938 C 822.980469 385.859375 824.152344 383.453125 826.09375 381.945312 C 827.550781 380.8125 829.21875 380.394531 830.390625 379.527344 C 833.824219 376.988281 836.867188 373.648438 840.71875 371.855469 "
     id="path3" />
  <path
     fill-rule="nonzero"
     fill="rgb(56.532288%, 56.27594%, 56.150818%)"
     fill-opacity="1"
     d="M 477.359375 181.851562 C 477.601562 182.71875 476.664062 182.988281 476.507812 183.636719 C 475.84375 186.414062 476.5625 186.96875 474.019531 189.304688 C 467.933594 194.894531 465.566406 200.253906 461.730469 207.25 C 458.351562 213.410156 446.789062 219.847656 440.527344 223 C 437.761719 224.394531 434.628906 224.796875 432.242188 226.964844 C 431.253906 227.84375 430.390625 229.085938 429.804688 229.539062 C 427.78125 231.109375 428.335938 231.757812 427.449219 233.050781 C 426.167969 235.617188 426.820312 235.167969 426.828125 235.285156 C 426.917969 236.460938 428.066406 236.199219 429.472656 237.621094 C 429.925781 238.015625 431.042969 240.855469 431.269531 241.078125 C 437.96875 247.691406 450.230469 252.542969 451.859375 263.230469 C 452.199219 265.453125 451.246094 274.9375 450.046875 276.566406 C 449.632812 277.125 448.71875 276.738281 448.554688 276.855469 C 448.378906 276.984375 449.257812 278.683594 447.53125 280.863281 C 421.730469 313.457031 358.03125 321.890625 341.578125 357.28125 C 333.730469 374.15625 346.671875 390.082031 354.574219 403.671875 C 362.367188 417.074219 361.128906 441.273438 353.242188 454.347656 C 344.535156 468.773438 331.464844 478.773438 315.683594 484.457031 C 295.195312 491.84375 274.0625 497.453125 252.996094 502.886719 C 218.84375 511.6875 186.160156 519.765625 156.570312 540.84375 C 144.71875 549.277344 129.265625 560.710938 122.789062 573.769531 C 122.152344 575.058594 120.910156 579.375 120.671875 579.570312 C 120.371094 579.824219 119.3125 579.542969 118.800781 579.621094 C 118.605469 580.488281 120.203125 579.679688 119.753906 580.808594 C 119.425781 581.644531 117.8125 582.605469 117.109375 581.550781 C 116.765625 581.039062 116.5625 570.640625 116.652344 569.289062 C 116.78125 567.390625 117.863281 564.238281 118.714844 562.5 C 121.804688 556.214844 132.621094 548.558594 138.523438 544.394531 C 191.472656 507 253.523438 502.386719 313.6875 480.0625 C 331.214844 474.261719 350.527344 458.996094 353.472656 439.703125 C 354.777344 431.15625 355.433594 413.511719 351.304688 405.980469 C 342.960938 390.742188 330.121094 373.613281 338.644531 355.304688 C 352.1875 326.199219 404.199219 310.738281 429.796875 292.40625 C 432.480469 290.484375 438.578125 285.84375 440.589844 283.519531 C 441.636719 282.304688 446.476562 275.746094 446.976562 274.550781 C 447.414062 273.511719 447.964844 271.046875 448.074219 269.890625 C 448.808594 262.382812 446.9375 258.765625 441.628906 253.796875 C 437.792969 250.207031 431.667969 247.082031 428.378906 243.527344 C 426.878906 241.902344 426.496094 240.875 425.519531 239.570312 C 424.429688 238.113281 422.96875 238.015625 423.140625 235.417969 C 423.40625 231.398438 424.886719 230.738281 427.152344 228.347656 C 427.550781 227.925781 428.335938 227.253906 428.894531 226.808594 C 429.664062 226.199219 430.210938 226.078125 431.15625 225.628906 C 435.613281 223.507812 444.832031 217.996094 449 215.15625 C 450.246094 214.304688 451.429688 213.507812 452.398438 212.316406 C 452.472656 211.953125 451.933594 212.007812 451.6875 212.085938 C 449.828125 212.683594 445.617188 215.550781 443.21875 216.574219 C 427.546875 223.257812 409.871094 224.332031 395.164062 230.914062 C 391.222656 232.683594 383.828125 237.742188 382.648438 241.910156 C 380.664062 248.898438 391.660156 251.511719 396.257812 254.042969 C 402.457031 257.453125 412.15625 265.386719 407.296875 273.269531 C 405.441406 276.28125 394.492188 281.226562 390.808594 282.699219 C 375.277344 288.914062 355.652344 289.355469 338.148438 292.914062 C 310.394531 298.558594 286.929688 307.910156 268.550781 329.996094 C 261.089844 338.960938 264.355469 355.5625 269.257812 365.160156 C 271.671875 369.875 278.828125 376.578125 278.988281 381.503906 C 279.023438 382.480469 278.625 388.226562 278.40625 388.664062 C 278.101562 389.277344 277.097656 389.382812 276.863281 389.75 C 272.085938 397.234375 270.261719 399.230469 262.164062 403.609375 C 220.457031 426.148438 167.574219 430.226562 121.296875 440.324219 C 119.664062 440.683594 118.175781 440.351562 117.175781 440.492188 C 116.8125 440.542969 116.949219 441.382812 115.96875 441.699219 C 113.789062 442.402344 111.757812 441.644531 110.46875 441.886719 C 110.117188 441.953125 110.179688 442.875 109.890625 442.886719 C 109.246094 442.910156 108.542969 442.328125 107.1875 442.496094 C 99.40625 443.460938 84.601562 447.3125 76.78125 449.574219 C 69.304688 451.734375 57.734375 456.058594 50.972656 459.757812 C 46.949219 461.960938 43.253906 465.011719 39.234375 467.21875 C 31 471.738281 18.703125 475.242188 12.003906 481.742188 C 10.417969 483.28125 9.683594 485.207031 7.925781 486.777344 C 6.308594 488.222656 4.207031 488.90625 2.644531 490.367188 C 5.546875 482.71875 12.398438 475.914062 19.492188 471.949219 C 23.113281 469.925781 27.65625 468.421875 31.285156 466.464844 C 45.023438 459.066406 54.449219 451.214844 69.859375 446.007812 C 101.566406 435.300781 135.347656 430.238281 168.25 424.871094 C 168.71875 424.792969 169.515625 425.074219 169.601562 425.011719 C 170.621094 424.277344 169.03125 423.679688 171.917969 424.082031 C 173.28125 424.273438 171.859375 423.359375 172.074219 423.203125 C 173.242188 422.363281 172.761719 424.355469 173.511719 424.152344 C 173.464844 423.792969 173.40625 423.351562 173.859375 423.214844 C 174.9375 422.875 180.214844 421.582031 180.878906 421.761719 C 181.246094 421.859375 181.183594 422.707031 181.476562 422.722656 C 183.1875 422.820312 191.363281 421.042969 193.699219 420.574219 C 202.054688 418.898438 210.746094 416.355469 218.253906 414.410156 C 234.988281 410.085938 262.503906 405.179688 273.082031 390.53125 C 281.230469 379.246094 270.394531 373.878906 266.148438 364.433594 C 259.828125 350.386719 259.03125 335.238281 269.988281 323.621094 C 289.765625 302.648438 309.773438 295.011719 337.664062 289.070312 C 355.628906 285.246094 378.1875 284.226562 394.796875 277.09375 C 401.285156 274.304688 408.054688 270.691406 401.351562 263.585938 C 399.898438 262.050781 395.40625 258.625 393.527344 257.734375 C 391.070312 256.566406 386.769531 254.890625 384.589844 253.359375 C 384.324219 253.171875 380.492188 249.234375 380.289062 248.90625 C 378.660156 246.265625 378.625 243.089844 379.460938 240.167969 C 381.1875 234.148438 390.082031 229.675781 395.640625 227.554688 C 400.070312 225.863281 411.863281 222.171875 416.242188 221.855469 C 417.328125 221.777344 417.796875 221.621094 418.972656 221.3125 C 419.472656 221.179688 420.355469 221.011719 421.019531 220.789062 C 421.769531 220.539062 422.839844 220.792969 423.71875 220.59375 C 433.625 218.324219 449.152344 212.769531 456.535156 205.898438 C 456.902344 205.558594 458.675781 203.648438 458.910156 203.328125 C 459.085938 203.082031 462.796875 197.113281 463.304688 196.328125 C 467.9375 189.160156 475.15625 180.507812 477.359375 181.851562 "
     id="path4"
     style="fill:#976800;fill-opacity:1" />
  <path
     fill-rule="nonzero"
     fill="rgb(56.192017%, 56.004333%, 55.908203%)"
     fill-opacity="1"
     d="M 702.472656 285.976562 C 702.511719 286.003906 702.292969 286.65625 702.832031 286.90625 C 705.078125 287.941406 709.351562 288.121094 711.710938 288.886719 C 715.28125 290.046875 722.117188 292.921875 725.527344 294.835938 C 733.878906 299.523438 733.238281 302.84375 738.3125 309.425781 C 740.589844 312.378906 746.660156 316.464844 749.992188 318.367188 C 760.222656 324.207031 769.601562 326.335938 780.328125 330.265625 C 787.113281 332.746094 795.726562 336.085938 802.304688 339.007812 C 804.960938 340.1875 811.515625 342.652344 810.230469 346.394531 C 809.144531 349.5625 807.957031 347.796875 806.371094 347.414062 C 798.855469 345.605469 789.121094 339.898438 781.445312 336.824219 C 765.964844 330.625 749.4375 327.328125 736.332031 316.183594 C 729.21875 310.132812 728.234375 302.761719 718.171875 298.351562 C 703.703125 292.015625 686.273438 290.535156 671.148438 284.902344 C 663.574219 282.078125 656.246094 277.6875 649.324219 274.089844 C 644.800781 271.738281 635.4375 266.164062 630.714844 266.261719 C 624.433594 266.394531 616.09375 272.800781 611.296875 276.640625 C 603.679688 282.742188 596.769531 289.953125 588.199219 295.285156 C 572.871094 304.824219 552.648438 303.742188 535.175781 303.714844 C 528.460938 303.703125 516.992188 305.898438 511.324219 309.503906 C 510.625 309.945312 509.835938 311.484375 509.296875 311.878906 C 499.511719 318.996094 491.375 327.460938 481.832031 334.34375 C 471.558594 341.753906 452.019531 349.179688 439.644531 352.625 C 436.957031 353.371094 434.558594 353.269531 432.183594 353.902344 C 431.582031 354.0625 428.847656 356.3125 428.402344 354.335938 C 427.996094 352.523438 436.105469 351.285156 437.414062 350.882812 C 452.257812 346.320312 471.929688 339.589844 483.125 328.921875 C 491.601562 320.839844 499.871094 311.644531 509.851562 305.253906 C 520.050781 298.722656 529.34375 299.230469 540.980469 298.902344 C 557.964844 298.425781 576.777344 299.011719 590.328125 286.839844 C 596.78125 281.042969 603.652344 274.179688 610.054688 268.667969 C 614.710938 264.660156 625 258.007812 631.175781 258.128906 C 638.550781 258.269531 648.488281 266.683594 655.105469 270.230469 C 669.777344 278.097656 683.402344 281.800781 699.335938 285.988281 C 699.949219 286.152344 700.539062 286.796875 700.902344 286.851562 C 701.660156 286.972656 702.171875 285.773438 702.472656 285.976562 "
     id="path5" />
  <path
     fill-rule="nonzero"
     fill="rgb(56.192017%, 56.004333%, 55.908203%)"
     fill-opacity="1"
     d="M 409.976562 93.261719 C 417.910156 102.476562 426.753906 111.042969 433.890625 120.941406 C 437.667969 126.191406 440.019531 131.964844 444.707031 136.519531 C 448.882812 140.566406 453.050781 143.371094 457.660156 146.601562 C 458.808594 147.40625 459.164062 148.605469 459.941406 149.253906 C 460.335938 149.585938 461.457031 149.625 461.523438 149.707031 C 461.585938 149.789062 461.113281 151.5625 461.035156 151.621094 C 460.722656 151.851562 457.773438 150.304688 457.203125 149.925781 C 451.761719 146.339844 445.824219 142.664062 440.859375 137.96875 C 434.820312 132.257812 430.351562 124.144531 425.050781 117.78125 C 412.195312 102.347656 396.898438 89.015625 386.25 71.640625 C 379.960938 61.375 376.082031 49.070312 367.679688 40.304688 C 365.28125 44.507812 362.105469 48.285156 359.734375 52.511719 C 359.21875 53.4375 359.40625 54.4375 359.019531 55.15625 C 357.90625 57.246094 354.132812 62.804688 352.328125 64.300781 C 350.5 65.820312 346.929688 67.144531 344.59375 66.308594 C 343.902344 66.058594 344 65.453125 343.558594 65.273438 C 343.121094 65.097656 342.308594 65.410156 341.878906 65.234375 C 335.695312 62.664062 329.261719 57.414062 323.601562 54.136719 C 319.429688 51.714844 316.394531 47.710938 311.132812 47.078125 C 303.871094 54.597656 303.445312 68.90625 291.425781 71.109375 C 286.625 71.988281 280.625 68.613281 276.222656 71.710938 C 272.011719 74.671875 270.257812 78.847656 267.800781 82.96875 C 265.222656 87.289062 262.082031 92.277344 259.988281 96.75 C 256.699219 103.769531 254.265625 112.316406 249.773438 118.683594 C 248.027344 121.15625 242.1875 126.945312 239.765625 129.316406 C 238.007812 131.039062 225.335938 142.84375 224.382812 143.253906 C 223.582031 143.597656 221.960938 143.28125 220.425781 144.421875 C 219.890625 144.820312 218.894531 146.449219 218.492188 146.667969 C 217.351562 147.296875 214.652344 147.605469 213.394531 148.535156 C 210.148438 150.933594 211.898438 151.355469 207 153.089844 C 203.738281 154.242188 193.316406 165.871094 189.039062 167.613281 L 183.28125 173.65625 C 178.824219 174.03125 176.746094 172.019531 179.996094 167.929688 C 183.144531 163.964844 191.792969 157.902344 196.035156 154.695312 C 212.75 142.066406 231.34375 132.371094 244.550781 115.863281 C 254.210938 103.785156 257.65625 87.402344 266.425781 74.878906 C 269.542969 70.421875 273.199219 65.953125 278.941406 65.316406 C 283.476562 64.8125 291.777344 66.816406 295.089844 64.308594 C 296.195312 63.472656 299.746094 57.191406 300.8125 55.507812 C 302.535156 52.785156 303.632812 50.914062 305.519531 48.21875 C 307.824219 44.933594 308.734375 40.292969 314.144531 42.480469 C 315 42.828125 319.730469 45.664062 320.824219 46.355469 C 328.148438 50.976562 334.558594 56.128906 342.441406 59.773438 C 344.835938 60.882812 346.394531 63.085938 349.230469 61.203125 C 352.417969 59.082031 360.046875 45.003906 362.839844 40.742188 C 364.746094 37.832031 364.929688 33.578125 369.953125 35.632812 C 376.332031 38.242188 388.242188 64.605469 392.867188 71.742188 C 397.644531 79.113281 404.136719 86.46875 409.976562 93.261719 "
     id="path6" />
  <path
     fill-rule="nonzero"
     fill="rgb(56.192017%, 56.004333%, 55.908203%)"
     fill-opacity="1"
     d="M 83.625 264.058594 C 107.695312 270.933594 126.617188 267.476562 143.957031 289.851562 C 148.449219 295.648438 151.304688 302.621094 155.570312 308.472656 C 161.160156 316.136719 164.050781 318.597656 173.765625 319.550781 C 185.523438 320.710938 197.886719 321.066406 209.699219 322.015625 C 210.75 322.101562 212.992188 323 213.570312 322.9375 C 213.9375 322.898438 213.796875 322.046875 213.867188 321.992188 C 214.863281 321.25 214.839844 322.847656 215.246094 323.144531 C 215.394531 323.25 218.304688 323.347656 218.886719 323.511719 C 222.574219 324.566406 227.371094 326.789062 231.019531 328.632812 C 235.335938 330.8125 238.8125 330.765625 237.621094 337.355469 C 235.117188 338.304688 232.800781 338.203125 230.449219 336.761719 C 215.492188 327.582031 201.757812 328.316406 184.324219 326.75 C 176.121094 326.011719 165.511719 326.554688 158.484375 322.351562 C 148.996094 316.671875 145.148438 303.261719 139.167969 294.636719 C 135.753906 289.707031 131.097656 284.21875 125.480469 280.96875 C 114.03125 274.347656 100.246094 273.679688 87.585938 270.871094 C 72.46875 267.519531 49.746094 255.84375 46.0625 239.445312 C 43.109375 226.292969 51.242188 206.234375 52.984375 192.589844 C 53.933594 185.152344 53.203125 171.878906 52.039062 164.375 C 51.5625 161.285156 47.667969 153.472656 47.785156 151.359375 C 47.828125 150.566406 48.460938 150.1875 48.960938 149.710938 C 49.433594 150.070312 49.765625 150.488281 50.050781 151.011719 C 56.65625 163.207031 57.660156 187.5625 55.703125 201.0625 C 53.324219 217.457031 44.171875 237.03125 58.574219 249.96875 C 66.382812 256.980469 73.6875 261.21875 83.625 264.058594 "
     id="path7" />
  <path
     fill-rule="nonzero"
     fill="rgb(56.532288%, 56.27594%, 56.150818%)"
     fill-opacity="1"
     d="M 599.761719 24.46875 C 598.945312 24.441406 598.136719 24.421875 597.34375 24.691406 C 587.117188 28.191406 571.996094 42.140625 566.558594 51.496094 C 555.457031 70.589844 548.957031 92.847656 536.3125 110.988281 C 527.742188 123.277344 515.507812 132.859375 503.050781 141.078125 C 482.96875 154.324219 458.238281 164.253906 436.226562 175.519531 C 419.632812 184.011719 403.691406 192.558594 386.144531 199.347656 C 374.65625 203.792969 354.699219 209.660156 342.597656 211.476562 C 340.917969 211.730469 332.710938 211.808594 331.921875 210.632812 C 330.6875 208.792969 336.15625 207.535156 337.3125 207.152344 C 351.21875 202.550781 367.703125 200.601562 381.445312 195.625 C 408.214844 185.929688 432.851562 171.347656 458.21875 158.636719 C 482.664062 146.386719 504.457031 137.699219 525.367188 119.238281 C 543.855469 102.914062 552.539062 69.148438 565.957031 48.019531 C 570.375 41.066406 582.769531 29.390625 590.015625 25.523438 C 592.625 24.128906 595.675781 23.792969 598.179688 22.148438 C 599.183594 21.996094 600.007812 23.578125 599.761719 24.46875 "
     id="path8" />
  <path
     fill-rule="nonzero"
     fill="rgb(56.192017%, 56.004333%, 55.908203%)"
     fill-opacity="1"
     d="M 542.636719 449.585938 C 535.496094 447.867188 528.28125 446.160156 520.921875 447.308594 C 500.894531 450.433594 490.480469 463.128906 472.8125 470.230469 C 462.355469 474.433594 450.085938 477.210938 439.058594 479.675781 C 428.101562 482.125 414.277344 483.488281 403.914062 486.769531 C 397.425781 488.820312 388.964844 500.234375 383.53125 505.257812 C 363.375 523.902344 348.949219 528.554688 324.460938 537.851562 C 322.230469 538.699219 315.488281 542.761719 313.328125 541.847656 C 311.816406 541.207031 312.707031 540.457031 312.421875 539.785156 C 312.027344 538.847656 310.5625 538.832031 311.726562 537.125 C 312.765625 535.601562 325.617188 532.28125 328.449219 531.289062 C 346.726562 524.867188 362.109375 516.855469 377.046875 504.53125 C 382.054688 500.398438 386.425781 494.539062 390.785156 489.933594 C 400.777344 479.371094 414.3125 479.859375 427.945312 476.722656 C 445.707031 472.636719 465.617188 468.882812 481.703125 460.40625 C 500.921875 450.273438 507.789062 442.496094 532.261719 444.847656 C 534.957031 445.105469 543.558594 445.988281 542.636719 449.585938 "
     id="path9" />
  <path
     fill-rule="nonzero"
     fill="rgb(56.192017%, 56.004333%, 55.908203%)"
     fill-opacity="1"
     d="M 264.335938 211.933594 C 264.835938 212.25 275.003906 213.105469 275.945312 212.980469 C 280.421875 212.40625 284.507812 209.226562 288.59375 208.355469 C 298.941406 206.144531 308.261719 213.042969 317.25 216.90625 C 322.582031 219.195312 328.777344 220.589844 333.710938 222.46875 C 338.597656 224.332031 345.4375 224.960938 343.816406 231.886719 C 343.101562 234.941406 337.351562 234.566406 334.980469 233.746094 C 333.726562 233.3125 330.894531 231.1875 329.140625 230.453125 C 320.363281 226.769531 309.324219 221.578125 301.015625 218.722656 C 298.121094 217.726562 292.433594 216.527344 289.550781 217.378906 C 289.089844 217.511719 289.148438 218.265625 288.597656 218.480469 C 287.804688 218.792969 287.007812 218.335938 286.324219 218.554688 C 281.925781 219.953125 278.304688 222.917969 273.085938 222.195312 C 272.160156 222.066406 272.4375 221.183594 272.125 221.179688 C 271.378906 221.167969 270.800781 221.859375 269.410156 221.574219 C 268.171875 221.316406 267.625 219.933594 267.507812 219.886719 C 267.085938 219.722656 265.71875 220.5 264.957031 218.796875 C 263.988281 221.25 263.90625 219.132812 263.6875 218.921875 C 263.546875 218.785156 262.792969 219.25 262.316406 219.066406 C 258.894531 217.722656 254.6875 215.457031 251.140625 214.371094 C 249.882812 213.988281 244.894531 212.800781 243.9375 213.042969 C 243.566406 213.136719 243.65625 213.835938 243.242188 213.96875 C 240.273438 214.933594 239.433594 214.40625 237.148438 217.386719 C 233.59375 222.023438 232.355469 226.328125 227.519531 230.308594 C 220.160156 236.371094 209.039062 241.277344 199.917969 243.984375 C 198.347656 244.449219 193.761719 245.78125 192.949219 244.230469 C 192.070312 242.554688 196.578125 242.5 198 242.070312 C 207.402344 239.210938 220.636719 231.105469 226.800781 223.355469 C 229.132812 220.421875 230.949219 216.738281 232.730469 213.925781 C 235.5625 209.449219 234.722656 211.097656 239.144531 209.054688 C 240.1875 208.570312 240.746094 207.183594 243.402344 206.839844 C 249.683594 206.019531 251.007812 207.980469 256.078125 209.4375 C 260 210.570312 260.722656 209.664062 264.335938 211.933594 "
     id="path10" />
  <path
     fill-rule="nonzero"
     fill="rgb(56.532288%, 56.27594%, 56.150818%)"
     fill-opacity="1"
     d="M 725.515625 109.398438 C 726.261719 110.160156 722.832031 118.738281 722.394531 120.429688 C 720.652344 127.199219 719.835938 138.152344 720.246094 145.136719 C 722.1875 178.472656 747.890625 187.402344 767.054688 208.691406 C 779.410156 222.410156 792.371094 238.765625 807.441406 249.421875 C 809.773438 251.070312 817.703125 255.101562 818.980469 256.839844 C 819.476562 257.515625 819.574219 259.3125 820.34375 260.515625 C 822.03125 263.152344 826.105469 263.476562 826.316406 266.773438 C 825.238281 267.804688 819.230469 263.414062 818.378906 262.480469 C 817.003906 260.972656 817.074219 259.171875 815.519531 257.660156 C 813.503906 255.703125 808.351562 253.785156 805.71875 252.105469 C 802.871094 250.285156 798.023438 247.097656 795.59375 244.949219 C 793.449219 243.050781 792.578125 240.683594 790.34375 238.683594 C 784.253906 233.242188 777.417969 227.820312 771.832031 221.679688 C 766.648438 215.984375 761.71875 207.898438 756.011719 202.949219 C 742.863281 191.558594 731.382812 185.820312 722.558594 169.695312 C 714.433594 154.859375 715.539062 128.027344 722.402344 112.757812 C 722.75 111.988281 724.425781 108.28125 725.515625 109.398438 "
     id="path11" />
  <path
     fill-rule="nonzero"
     fill="rgb(56.532288%, 56.27594%, 56.150818%)"
     fill-opacity="1"
     d="M 598.796875 39.347656 C 598.746094 40.6875 597.402344 41.183594 596.78125 42.363281 C 588.230469 58.59375 588.640625 77.445312 588.257812 95.261719 C 587.761719 118.519531 588.882812 135.222656 573.132812 154.03125 C 570.414062 157.277344 566.582031 161.085938 563.738281 164.316406 C 563.160156 164.972656 561.671875 166.621094 561.3125 167.207031 C 560.855469 167.953125 561.507812 168.714844 561.351562 168.855469 C 561.199219 168.992188 560.351562 168.835938 559.933594 169.140625 C 559.347656 169.5625 554.925781 176.4375 554.445312 177.578125 C 553.316406 180.277344 552.167969 187.652344 551.808594 190.777344 C 551.476562 193.675781 551.589844 205.550781 550.101562 206.839844 C 549.738281 207.15625 549 207.136719 548.550781 207.4375 C 547.476562 208.167969 548.777344 209.179688 546.21875 208.046875 C 545.988281 207.945312 545.542969 208.269531 545.527344 208.238281 C 545.394531 207.996094 545.007812 203.441406 545.007812 202.722656 C 545.046875 193.820312 546.550781 179.28125 550.789062 171.644531 C 551.402344 170.542969 553.765625 168.65625 553.925781 168.433594 C 554.269531 167.964844 554.046875 166.996094 554.402344 166.484375 C 554.722656 166.023438 555.625 166.179688 556.101562 165.667969 C 558.195312 163.433594 560.308594 160.875 562.34375 158.605469 C 576.203125 143.171875 580.476562 138.015625 583.78125 116.695312 C 585.3125 106.8125 584.546875 99.582031 584.882812 89.96875 C 585.246094 79.730469 587.003906 60.660156 590.402344 51.339844 C 591.152344 49.277344 595.109375 40.671875 596.617188 39.800781 C 597.378906 39.359375 597.910156 39.222656 598.796875 39.347656 "
     id="path12" />
  <path
     fill-rule="nonzero"
     fill="rgb(56.192017%, 56.004333%, 55.908203%)"
     fill-opacity="1"
     d="M 643.65625 158.617188 C 647.769531 164.3125 650.800781 168.835938 654.566406 174.808594 C 660.15625 183.679688 672.597656 189.625 681.03125 195.851562 C 692.277344 204.160156 700.839844 214.121094 709.683594 224.789062 C 710.332031 225.566406 713.128906 227.375 712.960938 228.527344 C 712.582031 231.136719 709.566406 232.1875 707.28125 231.011719 C 707.128906 230.933594 704.960938 228.789062 704.863281 228.652344 C 703.996094 227.421875 703.632812 226.277344 702.476562 224.667969 C 697.203125 217.332031 689.222656 208.570312 682.136719 203.117188 C 672.949219 196.050781 655.632812 187.109375 649.988281 176.984375 C 643.980469 166.214844 637.347656 155.804688 630.867188 145.238281 C 629.660156 143.269531 625.261719 135.875 624.007812 134.820312 C 621.789062 132.953125 615.863281 131.597656 612.957031 131.425781 C 611.746094 131.355469 610.710938 131.933594 609.648438 131.90625 C 607.460938 131.847656 605.242188 129.925781 602.640625 130.984375 C 602.519531 129.921875 603.457031 129.25 604.332031 129.082031 C 608.285156 128.328125 613.238281 129.914062 617.285156 129.546875 C 628.675781 131.09375 633.496094 144.160156 639.210938 152.730469 C 640.5625 154.757812 642.226562 156.640625 643.65625 158.617188 "
     id="path13" />
  <path
     fill-rule="nonzero"
     fill="rgb(56.192017%, 56.004333%, 55.908203%)"
     fill-opacity="1"
     d="M 103.625 357.746094 C 95.726562 353.996094 84.695312 350.316406 75.835938 349.3125 C 67.777344 348.394531 55.652344 348.554688 48.15625 345.789062 C 44.867188 344.574219 44.160156 344.378906 40.824219 343.523438 C 38.757812 342.992188 32.421875 339.667969 30.734375 338.257812 C 29.785156 337.46875 25.292969 333.097656 24.695312 332.296875 C 23.117188 330.179688 24.425781 328.472656 24.277344 327.039062 C 24.246094 326.734375 22.628906 326.835938 23.285156 325.796875 C 23.347656 325.699219 23.929688 326.078125 24.285156 326.007812 C 25.648438 325.734375 29.066406 324.621094 30.132812 324.90625 C 31.566406 325.285156 34.9375 330.460938 36.75 331.761719 C 55.804688 345.4375 87.339844 340.234375 109.550781 356.394531 C 112.03125 358.199219 114.476562 362.167969 116.140625 363.238281 C 116.738281 363.625 120.863281 364.480469 117.824219 365.875 C 115.714844 366.84375 109.515625 360.78125 107.433594 359.46875 C 106.199219 358.691406 104.890625 358.347656 103.625 357.746094 "
     id="path14" />
  <path
     fill-rule="nonzero"
     fill="rgb(56.192017%, 56.004333%, 55.908203%)"
     fill-opacity="1"
     d="M 737.042969 356.019531 C 731.109375 357.394531 729.695312 353.804688 725.683594 351.304688 C 717.386719 346.132812 705.359375 343.167969 696.699219 338.53125 C 691.871094 335.945312 687.671875 332.53125 683.148438 329.523438 C 669.375 320.367188 651.167969 317.808594 637.230469 306.808594 C 635.382812 305.351562 634.523438 303.382812 632.625 302.320312 C 632.109375 302.03125 631.40625 302.429688 631.925781 301.089844 C 632.191406 300.394531 632.714844 300.371094 633.394531 300.5625 C 634.445312 300.855469 637.230469 303.769531 638.480469 304.601562 C 651.179688 313.03125 666.5625 316.261719 680.089844 322.507812 C 686.960938 325.675781 693.460938 331.355469 700.460938 334.773438 C 709.855469 339.359375 723.980469 342.542969 731.765625 349.058594 C 732.78125 349.910156 738.175781 354.859375 737.042969 356.019531 "
     id="path15" />
  <path
     fill-rule="nonzero"
     fill="rgb(56.192017%, 56.004333%, 55.908203%)"
     fill-opacity="1"
     d="M 513.058594 514.074219 C 504.621094 521.898438 496.648438 530.859375 486.488281 536.683594 C 471.742188 545.132812 452.683594 549.097656 440.621094 561.832031 C 439.492188 563.027344 435.976562 568.605469 435.609375 568.828125 C 433.824219 569.925781 432.65625 567.933594 433.429688 566.664062 C 433.605469 566.378906 434.347656 566.246094 434.648438 565.820312 C 450.984375 542.972656 473.910156 542.054688 493.6875 524.683594 C 494.800781 523.703125 495.4375 522.351562 496.324219 521.566406 C 503.390625 515.300781 510.730469 509.121094 517.730469 502.660156 C 520.933594 500.351562 524.863281 504.300781 521.726562 507.132812 C 519.296875 509.324219 515.511719 511.800781 513.058594 514.074219 "
     id="path16" />
  <path
     fill-rule="nonzero"
     fill="rgb(56.532288%, 56.27594%, 56.150818%)"
     fill-opacity="1"
     d="M 551.273438 460.144531 C 552.144531 464.882812 552.828125 470.039062 556.089844 473.808594 C 557.097656 474.96875 558.328125 475.480469 559.21875 476.4375 C 562.292969 479.753906 561.769531 484.09375 563.523438 487.972656 C 569.371094 500.898438 594.703125 508.203125 606.164062 514.917969 C 610.675781 517.558594 614.878906 521.84375 619.476562 524.640625 C 623.273438 526.949219 637.3125 533.375 638.449219 537.382812 C 638.621094 537.992188 637.753906 541.921875 637.59375 542.101562 C 636.210938 543.644531 635.269531 541.394531 634.769531 541.007812 C 626.34375 534.519531 617.050781 528.773438 608.226562 522.433594 C 596.808594 514.226562 567.441406 502.652344 561.644531 490.328125 C 560.351562 487.585938 560.226562 482.960938 559.175781 480.796875 C 556.40625 475.089844 550.753906 474.3125 549.898438 465.125 C 549.757812 463.617188 549.175781 460.078125 551.273438 460.144531 "
     id="path17" />
  <path
     fill-rule="nonzero"
     fill="rgb(56.532288%, 56.27594%, 56.150818%)"
     fill-opacity="1"
     d="M 318.28125 136.066406 C 314.695312 140.300781 309.894531 145.308594 306.75 149.730469 C 303.539062 154.253906 300.542969 161.5 296.886719 165.78125 C 294.953125 168.054688 294.769531 167.113281 293.203125 166.070312 C 291.632812 165.023438 290.851562 165.925781 292.132812 162.945312 C 294.339844 157.796875 304.835938 144.375 308.894531 139.878906 C 316.140625 131.839844 324.371094 126.171875 330.585938 116.941406 C 337.757812 106.289062 342.742188 93.972656 347.175781 82.183594 C 347.4375 81.480469 346.960938 78.863281 348.472656 79.171875 C 349.28125 79.730469 349.289062 80.390625 349.191406 81.285156 C 349.011719 82.960938 347.085938 89.074219 346.445312 91.050781 C 344.949219 95.675781 342.085938 101.683594 339.859375 106.058594 C 333.515625 118.515625 327.0625 125.695312 318.28125 136.066406 "
     id="path18" />
  <path
     fill-rule="nonzero"
     fill="rgb(56.532288%, 56.27594%, 56.150818%)"
     fill-opacity="1"
     d="M 569.039062 340.191406 C 569.300781 341.300781 567.722656 341.746094 566.960938 342.1875 C 561.441406 345.375 555.125 347.84375 549.691406 351.316406 C 543.59375 355.210938 540.175781 357.632812 533.5 361.042969 C 532.75 361.429688 528.179688 365.167969 527.757812 362.96875 C 527.6875 362.601562 529.011719 359.824219 529.410156 359.351562 C 531.613281 356.703125 537.167969 355.660156 540.085938 354.191406 C 547.058594 350.6875 554.671875 344.613281 561.71875 341.75 C 563.742188 340.929688 566.828125 340.398438 569.039062 340.191406 "
     id="path19" />
  <path
     fill-rule="nonzero"
     fill="rgb(56.532288%, 56.27594%, 56.150818%)"
     fill-opacity="1"
     d="M 292.558594 74.367188 C 292.417969 80.332031 291.21875 93.222656 286.019531 96.863281 C 285.175781 97.453125 283.539062 97.835938 282.484375 97.878906 C 281.175781 96.488281 286.859375 89.15625 287.625 87.429688 C 288.742188 84.90625 289.777344 81.027344 290.488281 78.300781 C 290.945312 76.550781 290.367188 73.773438 292.558594 74.367188 "
     id="path20" />
</svg>
